<?xml version="1.0" encoding="UTF-8" standalone="no"?>
<!-- Created with Inkscape (http://www.inkscape.org/) -->

<svg
   xmlns:dc="http://purl.org/dc/elements/1.1/"
   xmlns:cc="http://creativecommons.org/ns#"
   xmlns:rdf="http://www.w3.org/1999/02/22-rdf-syntax-ns#"
   xmlns:svg="http://www.w3.org/2000/svg"
   xmlns="http://www.w3.org/2000/svg"
   xmlns:sodipodi="http://sodipodi.sourceforge.net/DTD/sodipodi-0.dtd"
   xmlns:inkscape="http://www.inkscape.org/namespaces/inkscape"
   width="604.64435"
   height="304.13828"
   id="svg4050"
   version="1.1"
   inkscape:version="0.48.4 r9939"
   sodipodi:docname="model-falha.svg">
  <defs
     id="defs4052">
    <clipPath
       clipPathUnits="userSpaceOnUse"
       id="clipPath4804">
      <rect
         style="color:#000000;fill:none;stroke:#000000;stroke-width:0.91763806;stroke-miterlimit:4;stroke-opacity:1;stroke-dasharray:none;stroke-dashoffset:0;marker:none;visibility:visible;display:inline;overflow:visible;enable-background:accumulate"
         id="rect4806"
         width="604.64435"
         height="304.13828"
         x="91.882706"
         y="83.61425"
         rx="0.5574559"
         ry="0.44750285" />
    </clipPath>
  </defs>
  <sodipodi:namedview
     id="base"
     pagecolor="#ffffff"
     bordercolor="#666666"
     borderopacity="1.0"
     inkscape:pageopacity="0.0"
     inkscape:pageshadow="2"
     inkscape:zoom="0.7"
     inkscape:cx="180.47274"
     inkscape:cy="230.17082"
     inkscape:document-units="px"
     inkscape:current-layer="layer1"
     showgrid="false"
     inkscape:window-width="1366"
     inkscape:window-height="719"
     inkscape:window-x="0"
     inkscape:window-y="25"
     inkscape:window-maximized="1"
     fit-margin-top="0"
     fit-margin-left="0"
     fit-margin-right="0"
     fit-margin-bottom="0" />
  <metadata
     id="metadata4055">
    <rdf:RDF>
      <cc:Work
         rdf:about="">
        <dc:format>image/svg+xml</dc:format>
        <dc:type
           rdf:resource="http://purl.org/dc/dcmitype/StillImage" />
        <dc:title></dc:title>
      </cc:Work>
    </rdf:RDF>
  </metadata>
  <g
     inkscape:label="Layer 1"
     inkscape:groupmode="layer"
     id="layer1"
     transform="translate(-91.882706,-83.61425)">
    <g
       id="g4794"
       clip-path="url(#clipPath4804)">
      <path
         inkscape:connector-curvature="0"
         id="path4237"
         d="m 445.90625,311.875 250.65625,0 c 0.31731,0 0.59375,-0.21345 0.59375,-0.5 l 0,-106.84375 c 0,-0.28655 -0.27644,-0.5 -0.59375,-0.5 l -416.4375,0 165.78125,107.84375 z"
         style="color:#000000;fill:#999999;fill-opacity:1;fill-rule:nonzero;stroke:#000000;stroke-width:0;stroke-miterlimit:4;stroke-opacity:1;stroke-dasharray:none;stroke-dashoffset:0;marker:none;visibility:visible;display:inline;overflow:visible;enable-background:accumulate" />
      <path
         inkscape:connector-curvature="0"
         id="path4234"
         d="m 260,192.9375 436.5625,0 c 0.31692,0 0.59375,-0.24469 0.59375,-0.53125 l 0,-81.8125 c 0,-0.28656 -0.27683,-0.53125 -0.59375,-0.53125 l -563.9375,0 127.375,82.875 z"
         style="color:#000000;fill:#ffffff;fill-opacity:1;fill-rule:nonzero;stroke:#000000;stroke-width:0;stroke-miterlimit:4;stroke-opacity:1;stroke-dasharray:none;stroke-dashoffset:0;marker:none;visibility:visible;display:inline;overflow:visible;enable-background:accumulate" />
      <path
         inkscape:connector-curvature="0"
         id="path4240"
         d="m 272.89996,204.625 423.65089,0 c 0.32557,0 0.6054,-0.37359 0.6054,-0.81104 l 0,-19.13099 c 0,-0.43743 -0.27983,-0.76333 -0.6054,-0.76333 l -444.90353,0 21.25264,20.70536 z"
         style="color:#000000;fill:#000000;fill-opacity:1;fill-rule:nonzero;stroke:#000000;stroke-width:0;stroke-miterlimit:4;stroke-opacity:1;stroke-dasharray:none;stroke-dashoffset:0;marker:none;visibility:visible;display:inline;overflow:visible;enable-background:accumulate" />
      <path
         inkscape:connector-curvature="0"
         id="path4243"
         d="m 610.84375,419.15625 85.71875,0 c 0.31731,0 0.59375,-0.2447 0.59375,-0.53125 l 0,-106.8125 c 0,-0.28655 -0.27644,-0.53125 -0.59375,-0.53125 l -251.5625,0 165.84375,107.875 z"
         style="color:#000000;fill:#333333;fill-opacity:1;fill-rule:nonzero;stroke:#000000;stroke-width:0;stroke-miterlimit:4;stroke-opacity:1;stroke-dasharray:none;stroke-dashoffset:0;marker:none;visibility:visible;display:inline;overflow:visible;enable-background:accumulate" />
      <path
         id="rect4070"
         d="M 407.50015,283.79378 241.7189,175.95003 l -149.562502,0 c -0.31731,0 -0.5625,0.21345 -0.5625,0.5 l 0,106.84375 c 0,0.28655 0.24519,0.5 0.5625,0.5 l 315.343752,0 z"
         style="color:#000000;fill:#999999;fill-opacity:1;fill-rule:nonzero;stroke:#000000;stroke-width:0;stroke-miterlimit:4;stroke-opacity:1;stroke-dasharray:none;stroke-dashoffset:0;marker:none;visibility:visible;display:inline;overflow:visible;enable-background:accumulate"
         inkscape:connector-curvature="0" />
      <path
         id="rect4064"
         d="m 221.5939,164.85628 -127.375002,-82.875 -2.0625,0 c -0.31691,0 -0.5625,0.24469 -0.5625,0.53125 l 0,81.8125 c 0,0.28656 0.24559,0.53125 0.5625,0.53125 l 129.437502,0 z"
         style="color:#000000;fill:#ffffff;fill-opacity:1;fill-rule:nonzero;stroke:#000000;stroke-width:0;stroke-miterlimit:4;stroke-opacity:1;stroke-dasharray:none;stroke-dashoffset:0;marker:none;visibility:visible;display:inline;overflow:visible;enable-background:accumulate"
         inkscape:connector-curvature="0" />
      <path
         id="rect4066"
         d="m 242.6564,176.54378 -20.84375,-18.5625 -129.656252,0 c -0.3193,0 -0.5625,0.29217 -0.5625,0.68433 l 0,17.15107 c 0,0.39217 0.2432,0.7271 0.5625,0.7271 l 150.500002,0 z"
         style="color:#000000;fill:#000000;fill-opacity:1;fill-rule:nonzero;stroke:#000000;stroke-width:0;stroke-miterlimit:4;stroke-opacity:1;stroke-dasharray:none;stroke-dashoffset:0;marker:none;visibility:visible;display:inline;overflow:visible;enable-background:accumulate"
         inkscape:connector-curvature="0" />
      <path
         id="rect4070-4"
         d="m 572.43765,391.07503 -165.84375,-107.875 -314.437502,0 c -0.31731,0 -0.5625,0.2447 -0.5625,0.53125 l 0,106.8125 c 0,0.28655 0.24519,0.53125 0.5625,0.53125 l 480.281252,0 z"
         style="color:#000000;fill:#333333;fill-opacity:1;fill-rule:nonzero;stroke:#000000;stroke-width:0;stroke-miterlimit:4;stroke-opacity:1;stroke-dasharray:none;stroke-dashoffset:0;marker:none;visibility:visible;display:inline;overflow:visible;enable-background:accumulate"
         inkscape:connector-curvature="0" />
    </g>
  </g>
</svg>
